Coordinates
version=1
nRows=9
nColumns=63
inDegrees=yes

Units are S.I. units (second, meters, Newtons, ...)
If the header above contains a line with 'inDegrees', this indicates whether rotational values are in degrees (yes) or radians (no).

endheader
time	pelvis_tilt	pelvis_list	pelvis_rotation	pelvis_tx	pelvis_ty	pelvis_tz	hip_flexion_r	hip_adduction_r	hip_rotation_r	knee_angle_r	knee_angle_r_beta	ankle_angle_r	subtalar_angle_r	mtp_angle_r	hip_flexion_l	hip_adduction_l	hip_rotation_l	knee_angle_l	knee_angle_l_beta	ankle_angle_l	subtalar_angle_l	mtp_angle_l	L5_S1_Flex_Ext	L5_S1_Lat_Bending	L5_S1_axial_rotation	L4_L5_Flex_Ext	L4_L5_Lat_Bending	L4_L5_axial_rotation	L3_L4_Flex_Ext	L3_L4_Lat_Bending	L3_L4_axial_rotation	L2_L3_Flex_Ext	L2_L3_Lat_Bending	L2_L3_axial_rotation	L1_L2_Flex_Ext	L1_L2_Lat_Bending	L1_L2_axial_rotation	L1_T12_Flex_Ext	L1_T12_Lat_Bending	L1_T12_axial_rotation	Abs_r3	Abs_r2	Abs_r1	Abs_t1	Abs_t2	neck_flexion	neck_bending	neck_rotation	arm_flex_r	arm_add_r	arm_rot_r	elbow_flex_r	pro_sup_r	wrist_flex_r	wrist_dev_r	arm_flex_l	arm_add_l	arm_rot_l	elbow_flex_l	pro_sup_l	wrist_flex_l	wrist_dev_l
      1.92000000	     -1.63449414	     -4.20472174	    102.54250190	      0.24743283	      0.86612428	      0.65911458	     -2.88625415	     -1.88630480	      2.54193565	      0.54147203	      0.00945047	     13.19913640	     -6.92986696	      0.00000000	      0.58329670	      3.31719061	      1.15058308	      5.18096486	      0.09042490	     12.75258601	     -4.06218613	      0.00000000	     -0.23241817	     -0.35220164	      0.40656853	     -0.43162378	     -0.46842818	      0.43197907	     -0.38183981	     -0.85634306	      0.43197907	     -0.26563072	     -0.85634306	      0.35574747	     -0.21582351	     -0.71820958	      0.33033693	     -0.13280374	     -0.54556034	      0.30492640	     -1.66013973	     -3.98417538	      2.26121221	      0.00000000	      0.00000000	     18.74934856	     -4.28544061	     -3.20507301	    -12.83503951	    -16.77371562	     15.39526542	     70.35434226	     89.16664224	     -8.99003009	      6.50570766	     -7.35324332	    -26.08352947	     36.32111209	     61.42761059	     89.10963150	    -29.68136931	     -5.48570933
      1.94000000	     -1.81653352	     -4.23267011	    102.64753911	      0.24735951	      0.86586915	      0.65948579	     -2.83681780	     -2.10714280	      1.46729949	      0.53735455	      0.00937861	     13.97175667	     -5.09758566	      0.00000000	      0.40942290	      3.49700418	      0.27654096	      4.75819211	      0.08304612	     12.89796960	     -2.95306376	      0.00000000	     -0.23296681	     -0.36905026	      0.38446669	     -0.43264267	     -0.49083685	      0.40849585	     -0.38274118	     -0.89730881	      0.40849585	     -0.26625777	     -0.89730881	      0.33640835	     -0.21633298	     -0.75256729	      0.31237918	     -0.13311724	     -0.57165886	      0.28835001	     -1.66405865	     -4.17477037	      2.13828837	      0.00000000	      0.00000000	     18.69348222	     -4.40205055	     -3.08045278	    -13.04734895	    -16.55169372	     14.87721875	     70.56264244	     89.16318709	     -8.74176648	     10.27180307	     -7.65566596	    -26.01272416	     34.71126265	     62.93089886	     89.16994154	    -25.42402680	     -1.67937915
      1.96000000	     -1.92499729	     -4.33647136	    102.73954456	      0.24728335	      0.86562747	      0.66018194	     -2.65752830	     -2.26627854	      1.18324163	      0.53562265	      0.00934838	     14.51202184	     -4.32291859	      0.00000000	      0.42479487	      3.63690462	     -0.35114122	      4.47853976	      0.07816526	     12.79744054	     -2.29298746	      0.00000000	     -0.21984381	     -0.38445949	      0.34148711	     -0.40827194	     -0.51133113	      0.36283006	     -0.36118140	     -0.93477481	      0.36283006	     -0.25125949	     -0.93477481	      0.29880122	     -0.20414696	     -0.78398980	      0.27745828	     -0.12561875	     -0.59552775	      0.25611534	     -1.57032235	     -4.34908267	      1.89924888	      0.00000000	      0.00000000	     18.58460485	     -4.36902133	     -3.20610826	    -12.99451176	    -16.70326649	     15.36479446	     70.35504434	     89.19887578	     -8.70623374	     12.63114937	     -7.81731638	    -25.80429003	     33.74778921	     63.74044570	     89.13582651	    -23.57632255	      0.15426740
      1.98000000	     -1.98053933	     -4.48177047	    102.73900898	      0.24733397	      0.86525859	      0.66110792	     -2.39123015	     -2.38270741	      1.14625096	      0.53459875	      0.00933051	     14.92442296	     -3.86796601	      0.00000000	      0.52785676	      3.74886964	     -0.87427569	      4.26106362	      0.07436959	     12.63785710	     -2.00708776	      0.00000000	     -0.20356659	     -0.39556178	      0.33281271	     -0.37804352	     -0.52609716	      0.35361350	     -0.33443956	     -0.96176890	      0.35361350	     -0.23265626	     -0.96176890	      0.29121112	     -0.18903194	     -0.80662958	      0.27041032	     -0.11631795	     -0.61272519	      0.24960953	     -1.45405582	     -4.47467393	      1.85100443	      0.00000000	      0.00000000	     18.58433898	     -4.31600719	     -3.38662305	    -13.02238313	    -17.01412780	     15.90851692	     70.32506304	     89.28590047	     -7.62739689	     14.49933523	     -8.18522562	    -25.55664974	     32.06320980	     64.84706509	     89.10190911	    -19.46624515	      3.06411793
      2.00000000	     -2.03103192	     -4.68529900	    102.62293374	      0.24734915	      0.86475248	      0.66203265	     -2.06028529	     -2.51856514	      1.78389105	      0.53439885	      0.00932702	     15.16688147	     -4.25671983	      0.00000000	      0.65998776	      3.89629485	     -0.80497144	      4.01336606	      0.07004645	     12.26469627	     -2.54497766	      0.00000000	     -0.18038691	     -0.40656957	      0.36260812	     -0.33499653	     -0.54073752	      0.38527113	     -0.29635765	     -0.98853324	      0.38527113	     -0.20616420	     -0.98853324	      0.31728211	     -0.16750728	     -0.82907666	      0.29461910	     -0.10307308	     -0.62977626	      0.27195609	     -1.28848564	     -4.59919625	      2.01671761	      0.00000000	      0.00000000	     18.59296112	     -4.37242933	     -3.81164576	    -13.19524399	    -17.45244814	     16.41194159	     70.85914440	     89.37209110	     -5.93332057	     16.36453019	     -8.66344292	    -25.30098341	     30.54007802	     65.98229105	     89.03613381	    -15.82566503	      5.72925395
      2.02000000	     -2.04587300	     -4.95201395	    102.59647371	      0.24708279	      0.86421475	      0.66297407	     -1.69442783	     -2.63570219	      2.01024763	      0.53179772	      0.00928162	     15.46323926	     -4.30891104	      0.00000000	      0.85109985	      4.01725696	     -0.84828081	      3.76154661	      0.06565137	     12.01128681	     -2.67560828	      0.00000000	     -0.15157511	     -0.41146231	      0.40809359	     -0.28149014	     -0.54724487	      0.43359944	     -0.24902275	     -1.00042945	      0.43359944	     -0.17323520	     -1.00042945	      0.35708189	     -0.14075265	     -0.83905393	      0.33157604	     -0.08661002	     -0.63735511	      0.30607019	     -1.08268588	     -4.65454390	      2.26969412	      0.00000000	      0.00000000	     18.74692817	     -4.42154791	     -4.15087677	    -13.59787085	    -18.02883341	     16.99253162	     71.97439248	     89.42336998	     -5.13602082	     16.77564323	     -8.86711550	    -25.27261124	     30.50072370	     66.85939361	     88.86378971	    -15.30924357	      6.19861889
      2.04000000	     -2.10721600	     -5.19959941	    102.15833240	      0.24770904	      0.86372529	      0.66377834	     -1.30241248	     -2.76849204	      3.51750094	      0.54999389	      0.00959920	     15.25737351	     -5.85608306	      0.00000000	      0.93383935	      4.20148993	      0.40040454	      3.36072108	      0.05865565	     11.02631351	     -5.11076804	      0.00000000	     -0.13097935	     -0.42579723	      0.53325706	     -0.24324174	     -0.56631032	      0.56658563	     -0.21518597	     -1.03528338	      0.56658563	     -0.14969629	     -1.03528338	      0.46659993	     -0.12162742	     -0.86828571	      0.43327136	     -0.07484160	     -0.65955991	      0.39994280	     -0.93557237	     -4.81670342	      2.96581579	      0.00000000	      0.00000000	     18.85780389	     -4.57532517	     -4.74659127	    -14.02413927	    -17.99563768	     15.99608654	     73.75311740	     89.45604203	     -0.98808139	     20.00565680	     -9.59054487	    -24.96317657	     28.15279722	     68.56873901	     88.84264124	     -9.24926744	      9.84000429
      2.06000000	     -2.23442920	     -5.51693965	    101.72885217	      0.24830513	      0.86323755	      0.66442159	     -0.87936018	     -2.99758583	      4.01542371	      0.57340605	      0.01000782	     15.33764413	     -5.91120346	      0.00000000	      1.13422301	      4.42106644	      0.51212012	      3.09481992	      0.05401480	     10.57552830	     -5.85355352	      0.00000000	     -0.10423138	     -0.44724599	      0.69305557	     -0.19356809	     -0.59483716	      0.73637154	     -0.17124173	     -1.08743389	      0.73637154	     -0.11912604	     -1.08743389	      0.60642362	     -0.09678926	     -0.91202401	      0.56310765	     -0.05955781	     -0.69278403	      0.51979168	     -0.74451431	     -5.05933604	      3.85456715	      0.00000000	      0.00000000	     19.02495394	     -4.73766637	     -5.27514482	    -14.59000359	    -17.92140808	     15.14107570	     75.76687703	     89.43943938	      1.39748590	     21.17186499	     -9.75160238	    -25.08663686	     27.94228416	     70.07621123	     88.73278974	     -8.07873650	     10.74338714
      2.08000000	     -2.30030372	     -5.79311245	    101.64075267	      0.24861665	      0.86275982	      0.66518263	     -0.55979478	     -3.11913682	      4.05623029	      0.58168525	      0.01015232	     15.40758200	     -5.89013655	      0.00000000	      1.39263971	      4.53998181	      0.59915576	      2.97796262	      0.05197525	     10.44912509	     -6.00043749	      0.00000000	     -0.08872406	     -0.46087779	      0.75928685	     -0.16476944	     -0.61296746	      0.80674227	     -0.14576475	     -1.12057826	      0.80674227	     -0.10140272	     -1.12057826	      0.66437599	     -0.08238916	     -0.93982199	      0.61692056	     -0.05069693	     -0.71389970	      0.56946513	     -0.63374705	     -5.21354175	      4.22292565	      0.00000000	      0.00000000	     19.51610705	     -4.85659805	     -5.35107386	    -14.85225923	    -18.01184678	     15.00584603	     77.91259191	     89.37795039	      2.17541796	     21.16388924	     -9.89733265	    -25.39409469	     27.96017089	     71.64596679	     88.62075762	     -7.61494539	     10.31539853
